<svg width="29" height="28" viewBox="0 0 29 28" fill="none" xmlns="http://www.w3.org/2000/svg">
<path d="M14.5 0C14.7652 0 15.0196 0.105357 15.2071 0.292893C15.3946 0.48043 15.5 0.734784 15.5 1V7C15.5 7.26522 15.3946 7.51957 15.2071 7.70711C15.0196 7.89464 14.7652 8 14.5 8C14.2348 8 13.9804 7.89464 13.7929 7.70711C13.6054 7.51957 13.5 7.26522 13.5 7V1C13.5 0.734784 13.6054 0.48043 13.7929 0.292893C13.9804 0.105357 14.2348 0 14.5 0ZM14.5 20C14.7652 20 15.0196 20.1054 15.2071 20.2929C15.3946 20.4804 15.5 20.7348 15.5 21V27C15.5 27.2652 15.3946 27.5196 15.2071 27.7071C15.0196 27.8946 14.7652 28 14.5 28C14.2348 28 13.9804 27.8946 13.7929 27.7071C13.6054 27.5196 13.5 27.2652 13.5 27V21C13.5 20.7348 13.6054 20.4804 13.7929 20.2929C13.9804 20.1054 14.2348 20 14.5 20ZM28.5 14C28.5 14.2652 28.3946 14.5196 28.2071 14.7071C28.0196 14.8946 27.7652 15 27.5 15H21.5C21.2348 15 20.9804 14.8946 20.7929 14.7071C20.6054 14.5196 20.5 14.2652 20.5 14C20.5 13.7348 20.6054 13.4804 20.7929 13.2929C20.9804 13.1054 21.2348 13 21.5 13H27.5C27.7652 13 28.0196 13.1054 28.2071 13.2929C28.3946 13.4804 28.5 13.7348 28.5 14ZM8.5 14C8.5 14.2652 8.39464 14.5196 8.20711 14.7071C8.01957 14.8946 7.76522 15 7.5 15H1.5C1.23478 15 0.98043 14.8946 0.792893 14.7071C0.605357 14.5196 0.5 14.2652 0.5 14C0.5 13.7348 0.605357 13.4804 0.792893 13.2929C0.98043 13.1054 1.23478 13 1.5 13H7.5C7.76522 13 8.01957 13.1054 8.20711 13.2929C8.39464 13.4804 8.5 13.7348 8.5 14ZM4.6 4.1C4.78753 3.91253 5.04184 3.80721 5.307 3.80721C5.57216 3.80721 5.82647 3.91253 6.014 4.1L10.26 8.344C10.4422 8.5326 10.543 8.7852 10.5407 9.0474C10.5384 9.3096 10.4332 9.56041 10.2478 9.74582C10.0624 9.93123 9.8116 10.0364 9.5494 10.0387C9.2872 10.041 9.0346 9.94016 8.846 9.758L4.6 5.514C4.41253 5.32647 4.30721 5.07216 4.30721 4.807C4.30721 4.54184 4.41253 4.28753 4.6 4.1ZM18.742 18.242C18.9295 18.0545 19.1838 17.9492 19.449 17.9492C19.7142 17.9492 19.9685 18.0545 20.156 18.242L24.4 22.486C24.5822 22.6746 24.683 22.9272 24.6807 23.1894C24.6784 23.4516 24.5732 23.7024 24.3878 23.8878C24.2024 24.0732 23.9516 24.1784 23.6894 24.1807C23.4272 24.183 23.1746 24.0822 22.986 23.9L18.742 19.656C18.5545 19.4685 18.4492 19.2142 18.4492 18.949C18.4492 18.6838 18.5545 18.4295 18.742 18.242ZM24.4 4.102C24.5869 4.28945 24.6918 4.54333 24.6918 4.808C24.6918 5.07267 24.5869 5.32655 24.4 5.514L20.156 9.76C19.9674 9.94216 19.7148 10.043 19.4526 10.0407C19.1904 10.0384 18.9396 9.93323 18.7542 9.74782C18.5688 9.56241 18.4636 9.3116 18.4613 9.0494C18.459 8.7872 18.5598 8.5346 18.742 8.346L22.986 4.102C23.1735 3.91453 23.4278 3.80921 23.693 3.80921C23.9582 3.80921 24.2125 3.91453 24.4 4.102ZM10.258 18.242C10.4455 18.4295 10.5508 18.6838 10.5508 18.949C10.5508 19.2142 10.4455 19.4685 10.258 19.656L6.014 23.9C5.8254 24.0822 5.5728 24.183 5.3106 24.1807C5.0484 24.1784 4.79759 24.0732 4.61218 23.8878C4.42677 23.7024 4.3216 23.4516 4.31933 23.1894C4.31705 22.9272 4.41784 22.6746 4.6 22.486L8.844 18.242C9.03153 18.0545 9.28584 17.9492 9.551 17.9492C9.81616 17.9492 10.0705 18.0545 10.258 18.242Z" fill="#1F1E1D"/>
</svg>
