<svg width="16" height="25" viewBox="0 0 16 25" fill="none" xmlns="http://www.w3.org/2000/svg">
<path d="M8.00033 0.666664C4.08466 0.666664 0.916992 3.83433 0.916992 7.75C0.916992 8.03179 1.02893 8.30204 1.22819 8.5013C1.42745 8.70056 1.6977 8.8125 1.97949 8.8125C2.26128 8.8125 2.53154 8.70056 2.73079 8.5013C2.93005 8.30204 3.04199 8.03179 3.04199 7.75C3.04199 5.00733 5.25766 2.79166 8.00033 2.79166C10.743 2.79166 12.9587 5.00733 12.9587 7.75C12.9587 8.957 12.6442 9.76166 12.2092 10.385C11.7502 11.0409 11.1227 11.5509 10.3647 12.1303L10.1692 12.2791C8.73841 13.3671 6.93783 14.7356 6.93783 17.6667V18.0208C6.93783 18.3026 7.04977 18.5729 7.24903 18.7721C7.44828 18.9714 7.71853 19.0833 8.00033 19.0833C8.28212 19.0833 8.55237 18.9714 8.75163 18.7721C8.95088 18.5729 9.06283 18.3026 9.06283 18.0208V17.6667C9.06283 15.8009 10.0743 15.0274 11.5916 13.8672L11.6567 13.8176C12.4033 13.2467 13.2817 12.561 13.9517 11.6019C14.6459 10.6088 15.0837 9.37775 15.0837 7.75C15.0837 3.83433 11.916 0.666664 8.00033 0.666664ZM8.00033 24.75C8.37605 24.75 8.73638 24.6007 9.00206 24.3351C9.26774 24.0694 9.41699 23.7091 9.41699 23.3333C9.41699 22.9576 9.26774 22.5973 9.00206 22.3316C8.73638 22.0659 8.37605 21.9167 8.00033 21.9167C7.6246 21.9167 7.26427 22.0659 6.99859 22.3316C6.73291 22.5973 6.58366 22.9576 6.58366 23.3333C6.58366 23.7091 6.73291 24.0694 6.99859 24.3351C7.26427 24.6007 7.6246 24.75 8.00033 24.75Z" fill="#1F1E1D"/>
</svg>
