<svg width="14" height="14" viewBox="0 0 14 14" fill="none" xmlns="http://www.w3.org/2000/svg">
<path fill-rule="evenodd" clip-rule="evenodd" d="M4.86073 0.835601C4.9411 0.353413 5.35829 0 5.84712 0H8.15287C8.64171 0 9.0589 0.353413 9.13927 0.835601L9.23859 1.43153C9.76783 1.64449 10.2597 1.93071 10.7017 2.27764L11.2689 2.06514C11.7267 1.89364 12.2413 2.07823 12.4857 2.50158L13.6386 4.49842C13.883 4.92176 13.7856 5.45977 13.4082 5.77046L12.941 6.15507C12.9799 6.43112 13 6.71321 13 7C13 7.28679 12.9799 7.56888 12.941 7.84493L13.4082 8.22954C13.7856 8.54023 13.883 9.07823 13.6386 9.50158L12.4857 11.4984C12.2413 11.9218 11.7267 12.1064 11.2689 11.9349L10.7017 11.7224C10.2597 12.0693 9.76783 12.3555 9.23859 12.5685L9.13927 13.1644C9.0589 13.6466 8.64171 14 8.15287 14H5.84712C5.35829 14 4.9411 13.6466 4.86073 13.1644L4.76141 12.5685C4.23217 12.3555 3.74029 12.0693 3.29832 11.7224L2.73111 11.9349C2.27334 12.1064 1.75868 11.9218 1.51426 11.4984L0.361388 9.50158C0.116968 9.07823 0.214437 8.54023 0.591842 8.22954L1.05903 7.84494C1.02012 7.56888 0.999999 7.28679 0.999999 7C0.999999 6.71321 1.02012 6.43112 1.05903 6.15506L0.591841 5.77046C0.214436 5.45977 0.116966 4.92176 0.361386 4.49842L1.51426 2.50158C1.75868 2.07824 2.27334 1.89364 2.73111 2.06514L3.29832 2.27764C3.74029 1.93071 4.23217 1.64449 4.76141 1.43153L4.86073 0.835601ZM10 7C10 8.65685 8.65685 10 7 10C5.34315 10 4 8.65685 4 7C4 5.34315 5.34315 4 7 4C8.65685 4 10 5.34315 10 7Z" fill="#687684"/>
</svg>
